<?xml version="1.0" encoding="UTF-8"?>
<svg width="164px" height="16px" viewBox="0 0 164 16" version="1.1" xmlns="http://www.w3.org/2000/svg" xmlns:xlink="http://www.w3.org/1999/xlink">
    <title>Group 12</title>
    <defs>
        <filter id="filter-1">
            <feColorMatrix in="SourceGraphic" type="matrix" values="0 0 0 0 0.000000 0 0 0 0 0.000000 0 0 0 0 0.000000 0 0 0 1.000000 0"></feColorMatrix>
        </filter>
        <polygon id="path-2" points="0 0 164 0 164 16 0 16"></polygon>
    </defs>
    <g id="blog" stroke="none" stroke-width="1" fill="none" fill-rule="evenodd">
        <g id="Group-12" transform="translate(-123.000000, -31.000000)" filter="url(#filter-1)">
            <g transform="translate(123.000000, 31.000000)">
                <mask id="mask-3" fill="white">
                    <use xlink:href="#path-2"></use>
                </mask>
                <g id="Clip-2"></g>
                <path d="M162.269401,7.80224725 C161.911141,7.54431227 161.496314,7.30839219 161.037844,7.10148759 C160.337109,6.78965334 159.582242,6.56511966 158.852164,6.34792539 C158.464032,6.23253777 158.06287,6.11310093 157.667111,5.97949462 C157.163196,5.79510981 156.59212,5.58609646 156.262674,4.97314227 L156.254623,4.95795966 L156.177505,4.76860167 L156.172421,4.74953145 C156.081638,4.41518409 156.115959,4.08968638 156.27189,3.80830317 C156.572841,3.26509737 157.220399,3.05035404 157.48332,2.98363615 C157.806305,2.89987655 158.142954,2.85736702 158.483841,2.85736702 C159.65025,2.85736702 160.802994,3.35231212 161.627034,4.19470074 C161.738156,4.08327762 161.849595,3.97185451 161.961141,3.8604314 C162.32385,3.49815302 162.69874,3.12348068 163.05128,2.75277619 L164,1.78943493 C162.972679,0.99800425 161.772371,0.446795876 160.506281,0.188094076 C159.912854,0.0633519037 159.312647,0 158.721763,0 C157.954503,0 157.207051,0.106195802 156.496465,0.316391712 C155.298276,0.655810347 154.377733,1.20448866 153.752845,1.95577269 C153.11535,2.66707725 152.738553,3.64812896 152.71885,4.6406384 C152.71885,5.65829801 153.072766,6.63706821 153.696066,7.33293715 C154.221061,7.95635154 154.969677,8.42760209 156.052295,8.8159379 C156.505469,8.9784761 156.981842,9.11216712 157.442643,9.24147232 C157.913189,9.37356059 158.399838,9.51011939 158.867736,9.67797184 C159.541141,9.90571101 160.210203,10.223448 160.53912,10.9896628 C160.570157,11.0553697 160.59717,11.1387894 160.624288,11.2519 L160.627996,11.2671662 L160.63022,11.2826865 C160.690389,11.7083892 160.593886,12.0942797 160.350668,12.3985226 C160.012217,12.8222849 159.371333,13.0867155 158.636806,13.1061145 C158.585959,13.107549 158.535112,13.108308 158.484159,13.108308 C157.024956,13.108308 155.533549,12.4935817 154.437584,11.451551 L152,13.8288902 C153.360157,15.0653433 155.206963,15.8243038 157.238301,15.9753705 C157.471244,15.9917339 157.703551,16 157.929079,16 C159.032459,16 160.021327,15.806422 160.868036,15.4244114 C162.046627,14.8929365 163.012403,13.9785229 163.518754,12.9135488 C164.075423,11.7627098 164.091948,10.3797446 163.559856,9.299841 C163.296193,8.74517079 162.861027,8.24051893 162.269401,7.80224725" id="Fill-1" fill="#EC2024" mask="url(#mask-3)"></path>
                <path d="M23.1238383,11.1865269 L22.4956686,10.1880035 C22.3868916,10.0152218 22.1963197,9.91025739 21.9913513,9.91025739 L18.9780448,9.91025739 C18.7831834,9.91025739 18.602028,10.0099395 18.4986497,10.1742867 L17.8797268,11.1579855 C17.8587433,11.1913836 17.8072692,11.1659089 17.8214845,11.129103 L18.5711074,9.18394231 L20.4354932,4.31869898 C20.4536472,4.27124631 20.521057,4.27115625 20.5393808,4.31860891 L23.1762631,11.1605411 C23.1890185,11.1935981 23.1427732,11.2166016 23.1238383,11.1865269 L23.1238383,11.1865269 Z M22.3579402,0.165031694 C22.319312,0.0656006333 22.2232112,0 22.116064,0 L18.8630996,0 C18.7558618,0 18.6595912,0.065769504 18.6210422,0.165369436 L13.01754,14.6494945 C12.9521788,14.8183574 13.0775818,15 13.259586,15 L16.1552197,15 C16.2626272,15 16.3588978,14.9341418 16.3973562,14.8344599 L17.0119897,13.2413375 C17.0504481,13.1418265 17.1464584,13.0762237 17.2536169,13.0762237 L23.7474695,13.0762237 C23.8546167,13.0762237 23.9507175,13.1418265 23.989176,13.2413375 L24.6038208,14.8344599 C24.6422679,14.9341418 24.7385498,15 24.8458668,15 L27.7403799,15 C27.9225652,15 28.0479569,14.8181018 27.9823467,14.6491537 L22.3579402,0.165031694 Z" id="Fill-3" fill="#EC2024" mask="url(#mask-3)"></path>
                <path d="M75.148564,11.242397 L74.3944519,10.0295084 C74.3483244,9.95530059 74.2674895,9.91022989 74.1805476,9.91022989 L70.8468442,9.91022989 C70.7599917,9.91022989 70.6791568,9.95530059 70.6330182,10.0295084 L69.8767921,11.2457193 C69.862229,11.2691496 69.8265149,11.2512571 69.836246,11.2255279 L72.4923659,4.18343318 L73.9676611,8.02912882 L73.9673256,8.01430414 L75.1891101,11.2220345 C75.1989306,11.2478493 75.1632165,11.2658263 75.148564,11.242397 M74.1317916,0 L70.8575036,0 C70.7693872,0 70.6904091,0.0546130695 70.6587552,0.137348886 L65.0035237,14.9289442 C64.9904035,14.9631941 65.0155477,15 65.0520335,15 L68.2210248,15 C68.3212435,15 68.4110489,14.9378902 68.4469419,14.8438308 L69.059786,13.2363876 C69.0966074,13.1398572 69.1887057,13.076214 69.2913739,13.076214 L75.7196764,13.076214 C75.8223558,13.076214 75.9144541,13.1398572 75.951186,13.2363876 L76.576893,14.8773139 C76.6050795,14.9512664 76.6755905,15 76.7542219,15 L79.9254167,15 C79.977819,15 80.0137903,14.9470916 79.9949098,14.8980171 L74.3303723,0.13708995 C74.2987184,0.0545342628 74.2197403,0 74.1317916,0" id="Fill-4" fill="#EC2024" mask="url(#mask-3)"></path>
                <path d="M129.767764,0 L118.232353,0 C118.104006,0 118,0.100926478 118,0.225351278 L118,14.7746579 C118,14.8991643 118.104006,15 118.232353,15 L129.767764,15 C129.895994,15 130,14.8991643 130,14.7746579 L130,12.0294482 C130,11.9163073 129.905428,11.8246153 129.788728,11.8246153 L121.690274,11.8246153 C121.640426,11.8246153 121.5971,11.857942 121.585919,11.9049421 L121.327594,12.9799536 C121.319558,13.0134508 121.268661,13.0078106 121.268778,12.973288 L121.274951,9.09905951 L127.932585,9.09905951 C128.026341,9.09905951 128.102394,9.02531249 128.102394,8.93438946 L128.102394,6.08817356 C128.102394,5.99733634 128.026341,5.92358933 127.932585,5.92358933 L121.671756,5.92358933 C121.620626,5.92358933 121.576485,5.95871147 121.566585,6.00741996 L121.338658,7.12960203 C121.328759,7.1643809 121.275766,7.15677584 121.276698,7.12071422 L121.274951,3.19786077 L129.788728,3.19786077 C129.905428,3.19786077 130,3.10617102 130,2.99294773 L130,0.225351278 C130,0.100926478 129.895994,0 129.767764,0" id="Fill-5" fill="#EC2024" mask="url(#mask-3)"></path>
                <path d="M95.7967061,0.0669532747 L93.1876509,0.0669532747 C93.0753962,0.0669532747 92.984357,0.161470255 92.984357,0.278188833 L92.9724889,11.1114614 C92.9733869,11.1510196 92.9199209,11.1610581 92.9074795,11.1236267 L92.7327577,10.0723108 C92.6906839,9.7893624 92.5903839,9.51917514 92.4386735,9.2802095 L86.5490365,0 L83.1959155,0 C83.0876854,0 83,0.0911108616 83,0.203490292 L83,14.7439343 C83,14.8605676 83.0910392,14.9552523 83.2032831,14.9552523 L85.8390388,14.9552523 C85.9513584,14.9552523 86.0423219,14.8605676 86.0423219,14.7439343 L86.0029418,4.02831415 C86.0019573,3.97845891 86.0591125,3.97871746 86.0731118,4.02652678 L86.1776636,4.92403115 C86.2102495,5.14275005 86.2877004,5.35168676 86.4048559,5.53654682 L92.4034695,15 L96,15 L96,0.278188833 C96,0.161470255 95.90895,0.0669532747 95.7967061,0.0669532747" id="Fill-6" fill="#EC2024" mask="url(#mask-3)"></path>
                <path d="M143.461719,5.88345148 L138.558117,5.88345148 C138.476548,5.88345148 138.405605,5.94070425 138.387233,6.02155726 L138.132125,7.13569472 C138.128362,7.15188154 138.10512,7.1490704 138.10512,7.13254135 L138.111872,3.3407113 C138.112093,3.24418485 138.189013,3.16596398 138.283973,3.16596398 L143.4128,3.16596398 C144.159087,3.16596398 144.803442,3.78723901 144.786287,4.54617963 C144.769354,5.28655236 144.181776,5.88345148 143.461719,5.88345148 L143.461719,5.88345148 Z M145.615138,8.66738733 C145.581825,8.58304095 145.613146,8.48651225 145.689402,8.43897067 L145.783255,8.38052567 C147.101846,7.5582777 147.920958,6.07651001 147.920958,4.51346376 C147.920958,2.02473629 145.920603,0 143.461719,0 L135.158488,0 C135.070943,0 135,0.0721640475 135,0.1612039 L135,14.838805 C135,14.9278371 135.070943,15 135.158488,15 L137.953827,15 C138.041261,15 138.112204,14.9278371 138.112204,14.838805 L138.112204,9.21052592 C138.112204,9.12157951 138.183147,9.04941659 138.270581,9.04941659 L142.037985,9.04941659 C142.129846,9.04941659 142.198355,8.96370687 142.179982,8.87220375 L142.024926,8.10661301 L144.623704,14.8355674 C144.662109,14.9347381 144.756183,15 144.860993,15 L147.744873,15 C147.925385,15 148.048788,14.8142679 147.981276,14.6438714 L145.615138,8.66738733 Z" id="Fill-7" fill="#EC2024" mask="url(#mask-3)"></path>
                <path d="M57.4651681,11.8246153 L52.7075393,11.8246153 C52.549027,11.8246153 52.4115049,11.9353634 52.3755153,12.09183 L52.1739425,12.9696984 C52.1659362,13.0043078 52.1157935,12.9983254 52.1159601,12.9628623 L52.1314721,9.09897482 L57.4692214,9.09897482 C58.2549567,9.09897482 58.8890838,9.7586792 58.8443418,10.5518633 C58.8034638,11.2753169 58.1797038,11.8246153 57.4651681,11.8246153 L57.4651681,11.8246153 Z M52.1311381,3.2631502 C52.1313051,3.22708406 52.1602905,3.19786077 52.1959349,3.19786077 L57.3091056,3.19786077 C58.0599538,3.19786077 58.7084121,3.8209107 58.69113,4.58213212 C58.674193,5.32472765 58.0828704,5.92358933 57.3586581,5.92358933 L52.576665,5.92358933 C52.4827937,5.92358933 52.4013049,5.98913282 52.3799806,6.08193595 C52.3799806,6.08193595 52.192817,6.91195065 52.1657691,7.02714212 C52.1524512,7.08388362 52.1160496,7.1163567 52.1160496,7.029877 L52.1311381,3.2631502 Z M60.8342026,7.43262198 L60.9754439,7.23436773 C61.6914829,6.22917253 61.9827179,5.0186318 61.78443,3.80313734 C61.4233316,1.58945088 59.4768654,0 57.2641075,0 L49.1241262,0 C49.0555322,0 49,0.056312413 49,0.125881448 L49,14.8742118 C49,14.9436859 49.0555322,15 49.1241262,15 L57.5135402,15 C59.9874564,15 62,12.9691857 62,10.472904 C62,9.43779894 61.6493466,8.45225832 60.9860559,7.62267157 L60.8342026,7.43262198 Z" id="Fill-8" fill="#EC2024" mask="url(#mask-3)"></path>
                <path d="M11.8546028,0 L0.145312084,0 C0.0650721531,0 0,0.0705428879 0,0.157623839 L0,3.00844139 C0,3.09542102 0.0650721531,3.16596391 0.145312084,3.16596391 L4.38309631,3.16596391 C4.4696233,3.16596391 4.53980361,3.24204575 4.53980361,3.33585901 L4.53980361,14.9113938 C4.53980361,14.9602976 4.57642656,15 4.62153699,15 L7.37838024,15 C7.42349067,15 7.46011362,14.9602976 7.46011362,14.9113938 L7.46011362,3.73279504 C7.46011362,3.60729039 7.43134987,3.45836902 7.2425775,3.40580522 L6.53393495,3.26274929 L6.53511466,3.26190494 C6.38862286,3.21802109 6.38296523,3.16400501 6.55916268,3.16008721 L11.8549974,3.14611598 C11.9350848,3.14585705 12,3.07540422 12,2.9885034 L12,0.157623839 C12,0.0705428879 11.9349186,0 11.8546028,0" id="Fill-9" fill="#EC2024" mask="url(#mask-3)"></path>
                <path d="M43.8805947,6.5864044 L37.7718501,6.5864044 C37.7125298,6.5864044 37.6645338,6.63340472 37.6645338,6.69148946 L37.6645338,9.47910454 C37.6645338,9.53710449 37.7125298,9.58427219 37.7718501,9.58427219 L42.1763978,9.58802169 C42.2959606,9.58802169 42.3380077,9.63310597 42.2194571,9.75810687 C42.215881,9.76185747 42.2151163,9.76502445 42.2120575,9.76877395 C41.8572601,10.1536112 41.3103774,10.6147831 41.0939566,10.7757021 C41.0417885,10.8144524 40.9924317,10.85437 40.9383069,10.8905369 C40.541721,11.1552901 40.1161216,11.3540421 39.7014867,11.4956267 C39.0398093,11.7397967 38.3179569,11.8815476 37.6592596,11.8815476 C37.6458099,11.8815476 37.6326189,11.8807151 37.6192591,11.8805477 C37.5524493,11.8829648 37.5149229,11.8828811 37.5149229,11.8828811 L37.5149229,11.8779643 C34.8277743,11.7948807 32.7276663,9.40518601 33.2397328,6.67765541 C33.4989654,5.29680704 34.4484616,4.10137881 35.7502924,3.51303238 C37.5163735,2.71511046 39.4560524,3.10744785 40.7541384,4.31946638 C40.8140547,4.37546109 40.905706,4.37971163 40.9684337,4.3268002 L43.1332149,2.50277101 C43.2024088,2.44444181 43.2081103,2.3389383 43.1443592,2.27493805 C41.6981917,0.823590296 39.7252373,0 37.6592596,0 C33.4359003,0 30,3.36445093 30,7.5 C30,11.6355452 33.4359003,15 37.6592596,15 C39.8620845,15 42.1758018,14.1009897 43.552438,12.7107241 L43.7008569,12.5593886 C43.8928523,12.3636362 44,12.1027173 44,11.8312977 L44,6.70332268 C44,6.63873881 43.9465499,6.5864044 43.8805947,6.5864044" id="Fill-10" fill="#EC2024" mask="url(#mask-3)"></path>
                <path d="M113.880573,6.5864044 L107.771814,6.5864044 C107.712494,6.5864044 107.664498,6.63340472 107.664498,6.69148946 L107.664498,9.47910454 C107.664498,9.53710449 107.712494,9.58427219 107.771814,9.58427219 L107.827727,9.58435478 L107.827221,9.58327233 L112.379858,9.58327233 C110.8914,11.3363749 109.4384,11.6117951 108.869309,11.7356298 L108.869051,11.7355462 C108.460478,11.8267972 108.049083,11.8815476 107.659224,11.8815476 C107.601523,11.8815476 107.517957,11.8812976 107.517957,11.8812976 L107.515573,11.881465 C104.828512,11.7983803 102.727646,9.40510342 103.239711,6.67765541 C103.498943,5.29680704 104.448436,4.10137881 105.750263,3.51312047 C107.516338,2.71511046 109.456011,3.10744785 110.754093,4.31946638 C110.814009,4.37546109 110.905682,4.37963454 110.968432,4.3268002 L113.133195,2.50277101 C113.202355,2.44444181 113.20809,2.3389383 113.144328,2.27493805 C111.698154,0.823590296 109.725195,0 107.659224,0 C103.435878,0 100,3.36445093 100,7.5 C100,11.6355452 103.435878,15 107.659224,15 C109.862042,15 112.175751,14.1009897 113.552428,12.7107241 L113.700757,12.5593886 C113.89283,12.3635536 114,12.1027173 114,11.8312977 L114,6.70332268 C114,6.63873881 113.946471,6.5864044 113.880573,6.5864044" id="Fill-11" fill="#EC2024" mask="url(#mask-3)"></path>
            </g>
        </g>
    </g>
</svg>